<?xml version="1.0" encoding="UTF-8"?>
<svg id="Layer_1" data-name="Layer 1" xmlns="http://www.w3.org/2000/svg" viewBox="0 0 985.53 828.22">
  <defs>
    <style>
      .cls-1 {
        fill: #061c26;
      }

      .cls-2 {
        fill: #fefefd;
      }

      .cls-3 {
        fill: #000f2e;
      }

      .cls-4 {
        fill: #f9b201;
      }
    </style>
  </defs>
  <path class="cls-3" d="M580.85,745.87c-54.27,60.36-159.03,85.74-237.49,81.99-162.36-7.76-296.05-108.98-334.02-266.98-22.75-94.67-3.01-199.07,49.35-277.63,3.69-5.54,7.12-11.14,11.89-15.87-16.53-28.92-19.58-61.82-10.44-93.73,6.92-24.18,22.64-50.46,45.04-62.96,4.5-2.51,12.65-4.47,15.61-6.39,1.72-1.11,8.11-10.14,11.04-12.96,34.42-33,93.27-54.39,140.48-56.52,10.05-.45,25.81,1.65,34.81-.19,5.4-1.1,20.59-9.8,27.48-12.52,73.09-28.89,149.48-28.07,224.25-5.75,11.14,3.33,31.08,12.93,40.57,14.43.81.13,1.62.1,2.43.06,1.88-1.4-13.56-10.99-14-12.98,41.54,2.49,81.57,11.78,120.52,25.97,71.01,25.87,139.82,61.94,198.95,109.05,18.1,14.42,62.14,49.33,64.52,72.48,1.42,13.89-2.23,23.31-13.97,30.99,13.25,10.29,35.01,27.22,25.19,46.21-2.07,3.99-6.5,7.06-8.62,10.38-6.58,10.26-9.12,19.5-18.07,29.93-15.6,18.15-35.98,27.03-52.49,43.49,75.9,59.63,95.77,194.51,9.48,254.49l.5-12.99c-2.04-2.05-13.21,11.03-15.52,12.97-21.7,18.13-58.14,30.56-85.47,20.52,7.96-3.16,19.03-7.13,25-13.49,3.02-1.23,6.18-4.35,8-6.99-2.64.06-5.53,1.58-8,1.99-11.46,1.91-25.67,1.68-37-1-.51-.12-1.38-1.68-3-.99v142s-212,0-212,0c-.32-.07-.7.1-1,0v-42c-2.63.33-3.3,4.22-4,5ZM121.85,203.37c-.44,6.01,0,12.87,0,19,0,1.72,2.5,8.5,3.26,10.74l4.73,9.75c-.02-15.71,12.19-26.44,26.57-29.93,1.19-21.94,9.3-45.57,23.47-62.53,1.37-1.64,10.45-11.06,11.48-11.52.53-.24,1.7-.19,1.48.49-10.79,22.88-12.5,49.75-7.98,74.5l4.46-8.01c9.4-12.28,21.9-13.75,36.52-10.98-.41-10.36,2.77-19.8,7.02-28.99l2.44,13.04c2.45,7.73,4.23,17.52,10.55,22.95v-16.5c0-2.41,4.67-10.28,6.49-12.51,11.22-13.77,29.1-16.42,41.02-1.99-.13-4.96-3.37-11.33-5.99-16.01-6.39-11.43-18.28-22.56-30.54-27.46l-20.97-5.51c16.09-6.42,31.87-1.64,46.91,4.94,5.45-11.95,17.2-19.42,29.07-23.95-4.75,18-5.41,36.83-.95,54.96,14.31-2.26,25.81-12.4,36.95-20.96-4.92,11.9-8.13,24.11-5.98,37,16.07-14.82,34.29-27.39,54.5-35.98l-16.51,24.97c2.23-.01,4.19-.96,6.45-1.04,48.16-1.78,97.63,1.58,144.73,11.36,18.15,3.77,35.89,9.08,53.81,13.69v-28h57c-8.41-17.31-14.96-32.48-12.88-52.38,1.81-17.36,16.61-35.53,34.48-37.51,29.44-3.27,71.54,28.86,92.39,47.88-9.15,1.72-16.11,8.71-23.98,13.01-.04-1.22-.55-2.31-1.17-3.32-12.74-20.71-66.07-62.04-82.72-27.05-11.8,24.79,3.44,48.72,16.9,68.86-25.71,19.48-35.41,55.47-39.88,86.16-6.74,46.26-9.03,119.7,50.63,131.08,10.05,1.92,30.33,2.35,26.23-12.72,9.58-.8,18.5,3.48,27.99,3.98l-12.04-9.45c-6.15-7.4-12.66-14.28-16.95-23.05-.21-.68.82-.68,1.47-.48,10.41,3.28,37.34,20.34,48.19,26.81,14.18,8.46,40.36,19.87,40.38,38.13,13.17,2.7,26.42,5.1,39.95,5.06l-10.99,6.98c14.14.53,43.94-1.9,52.43-15.04,4.13-6.4-2.32-7.96-6.24-10.66-1.3-.9-1.88-2.55-2.51-2.95-6.71-4.32-21.25-2.7-29.06-3.45-27.22-2.63-42.71-18.43-64.95-31.05-4.8-2.72-18.24-7.85-21.23-10.77-3.43-3.37-.38-16.53.84-21.27,2.29-8.84,6.74-16.73,11.72-24.28.05-1.78-9.23.43-10.53.48-1.5.06-2.89.68-2.47-1.48,17.19-21.57,41.3-37.59,68.99-41.5-12.14,10.67-23.06,22.48-32,35.98,10.39-4.95,19.4-12.69,29.68-17.81,17.64-8.8,36.96-13.32,53.8-.15,19.1,14.93,23.93,33.15,53.48,37.53,12.94,1.92,24.29-11.82,29.05-22.55-6.58-1.9-9.07,7.9-15.44,7.03-4.07-.55-4.3-6.27-6.06-9.04-10.38,10.13-17.01,11.53-22.7-3.31-3.8-9.91-4.87-13.49,5.51-17.87,11.35-4.78,27.96-3.92,39.19,1.16l.48-1.97c-29.96-14.71-64.84-25.74-97.99-15.02-.85-.81,2.36-5.38,3.42-6.07,2.24-1.45,5.04,0,5.57-1.92-11.96-3.02-45.37-13.28-38.24-30.76,2.14-5.24,7.09-6.21,11.74-7.28.75-.17,2.3.37,1.5-1.46-.69-1.58-9.67-12.54-11.48-14.53s-4.43-4.75-6.5-6.5c-4.32-3.64-9.7-5.88-14.01-9.48,17.1.02,28.54,5.57,41.01,16.48,13.04,11.4,35.24,43.49,53.5,41.54,17.62-1.88,2.11-31.06-6.51-36.54-.16-.74,1.02-.67,1.48-.48,1.93.8,11.23,8.13,13.06,9.94,6.57,6.48,12.16,15.04,11.49,24.59-.41,5.84-6.32,11.41,1.91,14.03,12.2,3.89,12.61-12.82,9.54-20.55,6.26,4.08,8.59,12.23,11.02,18.99,23.69-11.15,1.63-31.2-9.99-42.04-21.25-19.82-49.4-37.8-76.52-47.99-.2-1.88,2.1-.81,3.2-.7s11.69,2.22,8.78-1.27c-33.01-23.91-68.75-43.54-105.63-60.88-42.1-19.79-86.11-38.75-132.36-46.13,7.64,4.91,8.81,28.51-2.26,26.82-2.88-.44-17.92-9.59-22.38-11.69-67.48-31.75-131.51-46.62-206.57-33.85-13.82,2.35-27.26,6.25-40.79,9.72l42.03,4.45,10.96,2.55c-.88,2.18-5.27.52-7.31,1.01-.76.18-.61,1.76-1.37,1.95-3.45.86-6.75-.97-9.7-.87-9.56.34-27.28,4.56-37.04,6.97-6.09,1.5-20.89,7.59-25.19,7.89-7.14.49-23.05-3.64-31.89-3.95-32.24-1.13-70.63,4.81-100.16,17.82-37.36,16.46-75.58,44.89-86.34,86.17-4.68-5.73-5.31-16.9-4-24-33.25,30.53-39.16,90.75-12,127-.69-7.63,1.04-14.4,6.98-19.52,1.46-1.26,4.72-2.4,4.87-2.63.66-1.04-.06-6.04.28-8.23,1.97-12.67,8.83-19.25,13.37-30.63l1.5-.99c.61,1.5-.94,2.78-.99,3.5ZM328.84,258.87l-16.41-24.08c-11.72-14.06-16.35-39.14-26.15-52.85-3.57-4.99-8.62-9.14-14.81-5.93-10.26,5.31-5.2,17.12-1.5,25.25,10.5,23.07,35.44,47.88,58.87,57.62ZM270.85,285.86c-14.96-12.58-26.81-28.18-36.17-45.32-4.09-7.49-12.73-31.69-20.54-33.46-5.95-1.35-11.81,2.61-13.1,8.52-2.11,9.65,14.38,32.36,20.84,39.74,12.67,14.47,29.97,26.43,48.97,30.52ZM850.81,213.9c-3.35-2.69-3.13,9.83-2.96,11.47.69,6.61,2.81,10.31,10.05,8.04,10.41-3.26-5.44-14.29-7.09-19.51ZM204.85,315.86c-20.09-23.36-31.06-52.16-45.58-78.91-8.46-9.93-19.15-4.39-17.18,8.18,2.51,15.99,26.4,45.52,38.74,56.25,3.02,2.62,21.33,16.54,24.01,14.48ZM110.55,259.08c-9.39,2.81-.77,18.45,1.95,23.63,10.03,19.1,26.42,37.25,46.86,45.13-2.68-5.08-6.98-9.01-10.33-13.66-4.02-5.59-7.95-11.65-11.36-17.64s-16.1-36.13-20.53-37.46c-1.72-.51-4.88-.51-6.59,0ZM498.85,576.87c-25.03-.07-50.1.4-75-1v-126h380c-4.1-14.03-18.08-22.77-30.33-29.17-2.7-1.41-7.49-4.29-10.23-4.78-4.82-.86-.9,3.63-.15,6.16,1.83,6.25,4.65,15.96,3.71,22.32-.19,1.29.55,1.8-1.49,1.48-4.35-.67-21.25-9.29-26.17-11.84-17.62-9.14-33.96-20.79-50.88-31.12l-110.45-.05c-19.81-106.44-135.16-151.35-230.68-110.17-125.87,54.27-158.34,245.81-53.8,336.15,69.16,59.77,197.78,49.15,243.64-34.3,1.43-2.61,8.65-15.8,6.83-17.67-8.65-.02-17.35.03-26,0-6.32-.02-12.68.02-19,0ZM885.85,330.87h18.5s-2.5,9.99-2.5,9.99c7.55-.62,14.08-4.46,20.99-6.99l-6.5,23.99c10.66-7.17,19.91-16.77,24.5-28.99-20.58-1.24-43.74-9.89-60.33-22.18-14.09-10.43-26.26-28.24-46.64-20.79l4.99,23.96c5.98-3.29,10.65-7.81,14.98-13,1.12,8.57-2.71,16.49-1.99,25,5.54.33,11.97-2.81,16.05-6.45,1.4-1.25,1.37-3.37,2.93-3.55,1.87,4.17-.09,11.14,2.95,14.55,4.27,4.77,13.2-3.43,14.06-2.55l-2,6.99ZM971.84,296.88c-1.73-2.05-6.08,8.15-6.57,8.92-2.93,4.52-6.17,8.8-9.42,13.07,5.78.06,18.98-18.45,15.99-21.99ZM816.84,326.87c-12.08,2.89-21.67,12.92-28.99,22.51,14.26,6.85,25.88,18.75,41.79,22.2,16.7,3.62,29.12.23,44.93,11.07,7.09,4.86,5.24,9.54,13.81,1.27,6.52-6.29,12.76-16.9,13.45-26.04-3.84,1.83-19.46,15.3-22.31,14.8-8.1-5.92-17.52-10.13-27.68-10.81l2.99-14.99c-6.03,5.35-12.32,10.23-19.5,13.98,1.11-6.62,1.96-13.22,1.5-19.98-1.84,1.79-18.72,15.34-19.98,13.99,1.98-9.62,3.26-18.49-.01-28ZM893.85,539.87c.56.73,0,15.84,0,18.5s-2.77,13.01-3.74,16.26c-4.32,14.52-13.06,27.7-23.25,38.75,1.57,1.02,4.55-1.2,6.01-1.99,8.82-4.74,15.7-11.85,22.97-18.52-.38,7.74-3.33,14.9-5.22,22.27-.34,1.33-1.89,1.91.72,1.72,39.14-32.35,46.48-89.46,31.52-135.99,10.16,8.43,16.94,19.78,23.5,31.03,3.38,5.8,1.46-.23,1.43-2.47-.47-34.92-12.26-66.49-35.42-92.57-2.23-2.51-16.29-16.57-18.16-16.9-3.88-.69-6.01,8.54-7.17,10.6-12.44,22.01-42.76,24.54-65.19,26.83-.01,2.81,2.57,3.29,3.6,5.37.82,1.64,2.19,7.77,2.54,8,1.15.74,16.02-.13,19.35.14,24.86,2.02,41.52,20.14,39.39,45.36-.39,4.56-4.84,17.08-4.63,18.99.19,1.7,2.51,3.73,3.26,5.64,3.58,9.13,4.81,17.25,2.51,26.99,1.9-1.08,2.76-4.7,3.89-6.55.32-.52.52-3.5,2.1-1.44ZM844.85,576.86c12.04-12.47,33.29-32.12,23.87-51.36-2.12-4.33-5.78-5.94-7.8-9.99,21.51-19.73,11.09-52.17-20.07-48.63.85,3.03,1.31,4.89.57,8.06-1.03,4.38-4.78,5-5.57,8.93,19.5,1.73,24.6,20.01,13.41,34.92-6.32,8.43-15.14,12.22-23.41,18.08,19.8-.28,29.12,15.02,19.17,32.68-4.08,7.24-9.57,10.4-16.5,14.51-1.47.87-12.79,5.18-7.19,5.83,1.88.22,3.96-.25,5.93.09,8.47,1.47,14.97,8.8,15.62,17.43.33,4.32-1.57,6.67-1.54,10.48,9.21-8.56,18.68-22.12,16.44-35.44-1.16-6.88-7.33-7.28-12.94-5.57ZM756.85,516.86c21.61,6.55,55.12,8.06,75.32-3.16,4.09-2.27,14.64-12.07,5.98-14.62-10.14-2.99-34.3,9.72-45.67,10.93l-35.62,6.86ZM752.85,563.88c.31,1.84,2.06,1.68,3.37,2.12,18.14,6.18,57.77,10.15,73.97-1.3,6.72-4.75,7.37-13.35-2.79-12.86-9.86.47-26.96,6.92-38.34,8.74-11.88,1.9-24.23,2.89-36.21,3.3ZM753.85,612.88c.74,1.97,3.27,2.69,5.02,3.47,16.58,7.35,47.78,11.86,63.67,1.71,5.78-3.69,9.54-10.55,1.8-14.19-23.31,6.08-46.16,10.66-70.49,9.01Z"/>
  <path class="cls-2" d="M756.85,516.86l35.62-6.86c11.37-1.21,35.53-13.91,45.67-10.93,8.67,2.55-1.89,12.35-5.98,14.62-20.2,11.22-53.71,9.71-75.32,3.16Z"/>
  <path class="cls-2" d="M752.85,563.88c11.98-.41,24.33-1.4,36.21-3.3,11.37-1.82,28.48-8.27,38.34-8.74,10.16-.49,9.51,8.11,2.79,12.86-16.2,11.45-55.82,7.48-73.97,1.3-1.31-.45-3.05-.29-3.37-2.12Z"/>
  <path class="cls-2" d="M753.85,612.88c24.33,1.65,47.18-2.93,70.49-9.01,7.74,3.65,3.98,10.5-1.8,14.19-15.89,10.15-47.09,5.64-63.67-1.71-1.75-.78-4.28-1.5-5.02-3.47Z"/>
  <path class="cls-4" d="M517.85,576.87c-5.37,1.67-13.55,1.68-19,0,6.32.02,12.68-.02,19,0Z"/>
  <path class="cls-2" d="M328.84,258.87c-23.43-9.74-48.37-34.55-58.87-57.62-3.7-8.12-8.76-19.94,1.5-25.25,6.19-3.2,11.25.94,14.81,5.93,9.8,13.71,14.43,38.79,26.15,52.85l16.41,24.08Z"/>
  <path class="cls-2" d="M270.85,285.86c-19.01-4.09-36.3-16.05-48.97-30.52-6.46-7.38-22.95-30.1-20.84-39.74,1.29-5.91,7.15-9.87,13.1-8.52,7.81,1.77,16.45,25.98,20.54,33.46,9.37,17.13,21.21,32.74,36.17,45.32Z"/>
  <path class="cls-2" d="M204.85,315.86c-2.69,2.07-21-11.85-24.01-14.48-12.34-10.73-36.23-40.26-38.74-56.25-1.97-12.57,8.72-18.11,17.18-8.18,14.52,26.75,25.49,55.55,45.58,78.91Z"/>
  <path class="cls-2" d="M110.55,259.08c1.72-.51,4.88-.52,6.59,0,4.43,1.33,17.02,31.29,20.53,37.46s7.33,12.05,11.36,17.64c3.34,4.65,7.65,8.58,10.33,13.66-20.44-7.88-36.83-26.03-46.86-45.13-2.72-5.19-11.34-20.83-1.95-23.63Z"/>
  <path class="cls-4" d="M121.85,203.37c.05-.72,1.6-2,.99-3.5l-1.5.99c-4.54,11.38-11.4,17.96-13.37,30.63-.34,2.19.38,7.19-.28,8.23-.15.23-3.41,1.37-4.87,2.63-5.94,5.13-7.67,11.89-6.98,19.52-27.16-36.25-21.25-96.47,12-127-1.31,7.1-.68,18.27,4,24,10.76-41.28,48.97-69.71,86.34-86.17,29.53-13.01,67.92-18.95,100.16-17.82,8.85.31,24.75,4.45,31.89,3.95,4.3-.3,19.1-6.39,25.19-7.89,9.76-2.41,27.48-6.62,37.04-6.97,2.95-.11,6.25,1.73,9.7.87.76-.19.62-1.77,1.37-1.95,2.04-.49,6.43,1.17,7.31-1.01l-10.96-2.55-42.03-4.45c13.53-3.47,26.97-7.37,40.79-9.72,75.05-12.77,139.09,2.1,206.57,33.85,4.46,2.1,19.5,11.25,22.38,11.69,11.08,1.69,9.9-21.91,2.26-26.82,46.25,7.38,90.25,26.34,132.36,46.13,36.88,17.33,72.63,36.97,105.63,60.88,2.91,3.48-7.71,1.37-8.78,1.27s-3.4-1.18-3.2.7c27.12,10.19,55.27,28.17,76.52,47.99,11.62,10.84,33.68,30.89,9.99,42.04-2.44-6.76-4.77-14.91-11.02-18.99,3.07,7.73,2.67,24.43-9.54,20.55-8.23-2.62-2.32-8.19-1.91-14.03.67-9.55-4.92-18.11-11.49-24.59-1.84-1.81-11.13-9.14-13.06-9.94-.46-.19-1.64-.26-1.48.48,8.62,5.47,24.13,34.66,6.51,36.54-18.26,1.94-40.46-30.15-53.5-41.54-12.48-10.9-23.91-16.46-41.01-16.48,4.31,3.6,9.69,5.84,14.01,9.48,2.07,1.74,4.65,4.46,6.5,6.5s10.79,12.95,11.48,14.53c.8,1.84-.74,1.29-1.5,1.46-4.65,1.06-9.59,2.03-11.74,7.28-7.14,17.48,26.27,27.74,38.24,30.76-.53,1.91-3.33.47-5.57,1.92-1.06.69-4.27,5.25-3.42,6.07,33.15-10.72,68.03.31,97.99,15.02l-.48,1.97c-11.23-5.08-27.84-5.94-39.19-1.16-10.39,4.37-9.31,7.96-5.51,17.87,5.69,14.84,12.32,13.44,22.7,3.31,1.76,2.77,1.98,8.48,6.06,9.04,6.37.87,8.86-8.93,15.44-7.03-4.75,10.73-16.1,24.47-29.05,22.55-29.55-4.39-34.38-22.6-53.48-37.53-16.84-13.17-36.16-8.64-53.8.15-10.28,5.13-19.29,12.86-29.68,17.81,8.94-13.5,19.86-25.31,32-35.98-27.7,3.92-51.8,19.94-68.99,41.5-.41,2.16.97,1.54,2.47,1.48,1.3-.06,10.58-2.26,10.53-.48-4.99,7.55-9.43,15.44-11.72,24.28-1.23,4.74-4.28,17.89-.84,21.27,2.98,2.93,16.42,8.05,21.23,10.77,22.24,12.61,37.73,28.42,64.95,31.05,7.82.75,22.35-.87,29.06,3.45.63.41,1.22,2.06,2.51,2.95,3.92,2.71,10.37,4.26,6.24,10.66-8.49,13.14-38.3,15.57-52.43,15.04l10.99-6.98c-13.53.04-26.78-2.35-39.95-5.06-.02-18.25-26.2-29.67-40.38-38.13-10.85-6.48-37.78-23.54-48.19-26.81-.65-.21-1.69-.2-1.47.48,4.3,8.77,10.8,15.65,16.95,23.05l12.04,9.45c-9.49-.5-18.41-4.78-27.99-3.98,4.09,15.07-16.18,14.64-26.23,12.72-59.66-11.39-57.37-84.83-50.63-131.08,4.47-30.7,14.17-66.68,39.88-86.16-13.47-20.13-28.7-44.06-16.9-68.86,16.65-34.99,69.98,6.34,82.72,27.05.63,1.02,1.13,2.11,1.17,3.32,7.87-4.3,14.83-11.29,23.98-13.01-20.86-19.02-62.96-51.15-92.39-47.88-17.88,1.99-32.67,20.15-34.48,37.51-2.08,19.9,4.47,35.07,12.88,52.38h-57v28c-17.92-4.6-35.66-9.92-53.81-13.69-47.1-9.78-96.57-13.14-144.73-11.36-2.26.08-4.22,1.03-6.45,1.04l16.51-24.97c-20.21,8.59-38.43,21.16-54.5,35.98-2.15-12.89,1.06-25.1,5.98-37-11.15,8.56-22.64,18.7-36.95,20.96-4.45-18.13-3.8-36.96.95-54.96-11.87,4.53-23.62,12-29.07,23.95-15.04-6.57-30.82-11.36-46.91-4.94l20.97,5.51c12.26,4.91,24.14,16.03,30.54,27.46,2.62,4.68,5.85,11.05,5.99,16.01-11.92-14.43-29.8-11.78-41.02,1.99-1.82,2.23-6.49,10.1-6.49,12.51v16.5c-6.32-5.43-8.1-15.22-10.55-22.95l-2.44-13.04c-4.25,9.2-7.42,18.63-7.02,28.99-14.62-2.77-27.12-1.31-36.52,10.98l-4.46,8.01c-4.52-24.75-2.81-51.62,7.98-74.5.22-.67-.95-.73-1.48-.49-1.04.47-10.12,9.88-11.48,11.52-14.17,16.96-22.28,40.59-23.47,62.53-14.38,3.5-26.59,14.22-26.57,29.93l-4.73-9.75c-.76-2.24-3.26-9.02-3.26-10.74,0-6.13-.44-12.99,0-19ZM688.84,156.87c.02-5.49,9.8-16.08,14.77-16.83,2.54-.38,6.32,2.06,7.8-.11,2.32-13.78-22.68-32.82-34.3-34.82-5.15-.89-14.49-1.18-14.27,5.76,12.27.36,6.42,7.98,5.97,15.47-.84,14.26,9.81,22.54,20.02,30.54Z"/>
  <path class="cls-4" d="M893.85,539.87c-1.57-2.06-1.78.92-2.1,1.44-1.13,1.85-1.99,5.47-3.89,6.55,2.3-9.74,1.07-17.87-2.51-26.99-.75-1.91-3.07-3.93-3.26-5.64-.21-1.91,4.25-14.43,4.63-18.99,2.13-25.22-14.52-43.33-39.39-45.36-3.33-.27-18.21.6-19.35-.14-.35-.23-1.73-6.35-2.54-8-1.03-2.08-3.61-2.56-3.6-5.37,22.43-2.29,52.75-4.82,65.19-26.83,1.16-2.06,3.3-11.29,7.17-10.6,1.88.34,15.93,14.39,18.16,16.9,23.17,26.08,34.96,57.65,35.42,92.57.03,2.23,1.96,8.27-1.43,2.47-6.56-11.25-13.34-22.59-23.5-31.03,14.96,46.53,7.62,103.65-31.52,135.99-2.61.19-1.06-.39-.72-1.72,1.89-7.38,4.84-14.53,5.22-22.27-7.27,6.67-14.15,13.78-22.97,18.52-1.46.79-4.45,3.01-6.01,1.99,10.2-11.04,18.93-24.22,23.25-38.75.97-3.25,3.74-13.55,3.74-16.26s.56-17.77,0-18.5Z"/>
  <path class="cls-4" d="M844.85,576.86c5.61-1.71,11.78-1.31,12.94,5.57,2.24,13.32-7.24,26.87-16.44,35.44-.04-3.81,1.86-6.16,1.54-10.48-.65-8.62-7.15-15.96-15.62-17.43-1.97-.34-4.05.13-5.93-.09-5.6-.65,5.72-4.96,7.19-5.83,6.93-4.11,12.41-7.26,16.5-14.51,9.95-17.65.63-32.96-19.17-32.68,8.28-5.85,17.09-9.65,23.41-18.08,11.19-14.91,6.09-33.19-13.41-34.92.79-3.93,4.54-4.54,5.57-8.93.74-3.17.27-5.02-.57-8.06,31.16-3.53,41.58,28.9,20.07,48.63,2.02,4.05,5.69,5.66,7.8,9.99,9.41,19.25-11.84,38.89-23.87,51.36Z"/>
  <path class="cls-2" d="M816.84,326.87c3.28,9.51,1.99,18.38.01,28,1.26,1.35,18.15-12.2,19.98-13.99.46,6.76-.39,13.36-1.5,19.98,7.18-3.75,13.47-8.63,19.5-13.98l-2.99,14.99c10.16.68,19.58,4.89,27.68,10.81,2.85.5,18.47-12.97,22.31-14.8-.69,9.14-6.93,19.75-13.45,26.04-8.58,8.27-6.72,3.59-13.81-1.27-15.81-10.84-28.23-7.45-44.93-11.07s-27.53-15.34-41.79-22.2c7.32-9.59,16.9-19.62,28.99-22.51Z"/>
  <path class="cls-2" d="M885.85,330.87l2-6.99c-.85-.88-9.79,7.32-14.06,2.55-3.04-3.4-1.08-10.38-2.95-14.55-1.56.17-1.53,2.3-2.93,3.55-4.08,3.64-10.52,6.78-16.05,6.45-.72-8.52,3.11-16.43,1.99-25-4.33,5.19-9,9.71-14.98,13l-4.99-23.96c20.38-7.46,32.56,10.36,46.64,20.79,16.59,12.28,39.75,20.93,60.33,22.18-4.59,12.22-13.84,21.82-24.5,28.99l6.5-23.99c-6.91,2.53-13.44,6.36-20.99,6.99l2.5-10h-1s-17.5,0-17.5,0Z"/>
  <path class="cls-2" d="M850.81,213.9c1.66,5.22,17.5,16.25,7.09,19.51-7.24,2.27-9.36-1.42-10.05-8.04-.17-1.65-.39-14.17,2.96-11.47Z"/>
  <path class="cls-4" d="M971.84,296.88c2.98,3.53-10.21,22.04-15.99,21.99,3.25-4.27,6.49-8.55,9.42-13.07.49-.76,4.85-10.96,6.57-8.92Z"/>
  <path class="cls-1" d="M688.84,156.87c-10.21-8-20.86-16.28-20.02-30.54.44-7.49,6.29-15.11-5.97-15.47-.22-6.94,9.12-6.64,14.27-5.76,11.62,2,36.62,21.03,34.3,34.82-1.49,2.17-5.26-.28-7.8.11-4.97.75-14.75,11.35-14.77,16.83Z"/>
</svg>